<?xml version="1.0" encoding="UTF-8" standalone="no"?>
<!DOCTYPE svg PUBLIC "-//W3C//DTD SVG 1.1//EN"
 "http://www.w3.org/Graphics/SVG/1.1/DTD/svg11.dtd">
<!-- Generated by graphviz version 7.1.0 (20230121.1956)
 -->
<!-- Title: lush Pages: 1 -->
<svg width="419pt" height="294pt"
 viewBox="0.00 0.00 418.50 294.00" xmlns="http://www.w3.org/2000/svg" xmlns:xlink="http://www.w3.org/1999/xlink">
<g id="graph0" class="graph" transform="scale(1 1) rotate(0) translate(4 290)">
<title>lush</title>
<polygon fill="white" stroke="none" points="-4,4 -4,-290 414.5,-290 414.5,4 -4,4"/>
<!-- for0 -->
<g id="node1" class="node">
<title>for0</title>
<polygon fill="none" stroke="black" points="117,-249.5 117,-285.5 171,-285.5 171,-249.5 117,-249.5"/>
<text text-anchor="middle" x="144" y="-263.8" font-family="Times,serif" font-size="14.00">for</text>
</g>
<!-- iter0 -->
<g id="node2" class="node">
<title>iter0</title>
<polygon fill="none" stroke="black" points="0,-166.5 0,-212.5 54,-212.5 54,-166.5 0,-166.5"/>
<text text-anchor="middle" x="27" y="-197.3" font-family="Times,serif" font-size="14.00">Name</text>
<polyline fill="none" stroke="black" points="0,-189.5 54,-189.5"/>
<text text-anchor="middle" x="27" y="-174.3" font-family="Times,serif" font-size="14.00">&quot;i&quot;</text>
</g>
<!-- for0&#45;&gt;iter0 -->
<g id="edge1" class="edge">
<title>for0&#45;&gt;iter0</title>
<path fill="none" stroke="black" d="M118.03,-249.63C101.9,-239.15 80.93,-225.53 63.18,-214"/>
<polygon fill="black" stroke="black" points="65.27,-211.18 54.97,-208.67 61.45,-217.05 65.27,-211.18"/>
</g>
<!-- init0 -->
<g id="node3" class="node">
<title>init0</title>
<polygon fill="none" stroke="black" points="72.5,-166.5 72.5,-212.5 137.5,-212.5 137.5,-166.5 72.5,-166.5"/>
<text text-anchor="middle" x="105" y="-197.3" font-family="Times,serif" font-size="14.00">Numeral</text>
<polyline fill="none" stroke="black" points="72.5,-189.5 137.5,-189.5"/>
<text text-anchor="middle" x="105" y="-174.3" font-family="Times,serif" font-size="14.00">0</text>
</g>
<!-- for0&#45;&gt;init0 -->
<g id="edge2" class="edge">
<title>for0&#45;&gt;init0</title>
<path fill="none" stroke="black" d="M135.34,-249.63C131.24,-241.63 126.19,-231.78 121.39,-222.44"/>
<polygon fill="black" stroke="black" points="124.52,-220.88 116.84,-213.58 118.3,-224.08 124.52,-220.88"/>
</g>
<!-- bound0 -->
<g id="node4" class="node">
<title>bound0</title>
<polygon fill="none" stroke="black" points="156,-166.5 156,-212.5 210,-212.5 210,-166.5 156,-166.5"/>
<text text-anchor="middle" x="183" y="-197.3" font-family="Times,serif" font-size="14.00">BinOp</text>
<polyline fill="none" stroke="black" points="156,-189.5 210,-189.5"/>
<text text-anchor="middle" x="183" y="-174.3" font-family="Times,serif" font-size="14.00">+</text>
</g>
<!-- for0&#45;&gt;bound0 -->
<g id="edge3" class="edge">
<title>for0&#45;&gt;bound0</title>
<path fill="none" stroke="black" d="M152.66,-249.63C156.76,-241.63 161.81,-231.78 166.61,-222.44"/>
<polygon fill="black" stroke="black" points="169.7,-224.08 171.16,-213.58 163.48,-220.88 169.7,-224.08"/>
</g>
<!-- body0 -->
<g id="node7" class="node">
<title>body0</title>
<polygon fill="none" stroke="black" points="234,-171.5 234,-207.5 288,-207.5 288,-171.5 234,-171.5"/>
<text text-anchor="middle" x="261" y="-185.8" font-family="Times,serif" font-size="14.00">Body</text>
</g>
<!-- for0&#45;&gt;body0 -->
<g id="edge4" class="edge">
<title>for0&#45;&gt;body0</title>
<path fill="none" stroke="black" d="M169.97,-249.63C186.33,-239.01 207.66,-225.15 225.57,-213.52"/>
<polygon fill="black" stroke="black" points="227.36,-216.53 233.84,-208.14 223.54,-210.66 227.36,-216.53"/>
</g>
<!-- l0 -->
<g id="node5" class="node">
<title>l0</title>
<polygon fill="none" stroke="black" points="67.5,-83.5 67.5,-129.5 132.5,-129.5 132.5,-83.5 67.5,-83.5"/>
<text text-anchor="middle" x="100" y="-114.3" font-family="Times,serif" font-size="14.00">Numeral</text>
<polyline fill="none" stroke="black" points="67.5,-106.5 132.5,-106.5"/>
<text text-anchor="middle" x="100" y="-91.3" font-family="Times,serif" font-size="14.00">2</text>
</g>
<!-- bound0&#45;&gt;l0 -->
<g id="edge5" class="edge">
<title>bound0&#45;&gt;l0</title>
<path fill="none" stroke="black" d="M160.76,-166.79C151.45,-157.71 140.49,-147.02 130.46,-137.22"/>
<polygon fill="black" stroke="black" points="132.99,-134.8 123.39,-130.32 128.1,-139.81 132.99,-134.8"/>
</g>
<!-- r0 -->
<g id="node6" class="node">
<title>r0</title>
<polygon fill="none" stroke="black" points="150.5,-83.5 150.5,-129.5 215.5,-129.5 215.5,-83.5 150.5,-83.5"/>
<text text-anchor="middle" x="183" y="-114.3" font-family="Times,serif" font-size="14.00">Numeral</text>
<polyline fill="none" stroke="black" points="150.5,-106.5 215.5,-106.5"/>
<text text-anchor="middle" x="183" y="-91.3" font-family="Times,serif" font-size="14.00">3</text>
</g>
<!-- bound0&#45;&gt;r0 -->
<g id="edge6" class="edge">
<title>bound0&#45;&gt;r0</title>
<path fill="none" stroke="black" d="M183,-166.79C183,-158.71 183,-149.35 183,-140.48"/>
<polygon fill="black" stroke="black" points="186.5,-140.78 183,-130.78 179.5,-140.78 186.5,-140.78"/>
</g>
<!-- stmt0 -->
<g id="node8" class="node">
<title>stmt0</title>
<polygon fill="none" stroke="black" points="234,-83.5 234,-129.5 288,-129.5 288,-83.5 234,-83.5"/>
<text text-anchor="middle" x="261" y="-114.3" font-family="Times,serif" font-size="14.00">Local</text>
<polyline fill="none" stroke="black" points="234,-106.5 288,-106.5"/>
<text text-anchor="middle" x="261" y="-91.3" font-family="Times,serif" font-size="14.00">&quot;x&quot;</text>
</g>
<!-- body0&#45;&gt;stmt0 -->
<g id="edge7" class="edge">
<title>body0&#45;&gt;stmt0</title>
<path fill="none" stroke="black" d="M261,-171.72C261,-162.83 261,-151.59 261,-141"/>
<polygon fill="black" stroke="black" points="264.5,-141.01 261,-131.01 257.5,-141.01 264.5,-141.01"/>
</g>
<!-- stmt1 -->
<g id="node10" class="node">
<title>stmt1</title>
<polygon fill="none" stroke="black" points="319.5,-83.5 319.5,-129.5 410.5,-129.5 410.5,-83.5 319.5,-83.5"/>
<text text-anchor="middle" x="365" y="-114.3" font-family="Times,serif" font-size="14.00">Function Call</text>
<polyline fill="none" stroke="black" points="319.5,-106.5 410.5,-106.5"/>
<text text-anchor="middle" x="365" y="-91.3" font-family="Times,serif" font-size="14.00">print</text>
</g>
<!-- body0&#45;&gt;stmt1 -->
<g id="edge8" class="edge">
<title>body0&#45;&gt;stmt1</title>
<path fill="none" stroke="black" d="M282.8,-171.52C295.95,-161.28 313.03,-147.98 328.22,-136.15"/>
<polygon fill="black" stroke="black" points="329.96,-139.23 335.7,-130.32 325.66,-133.7 329.96,-139.23"/>
</g>
<!-- rval0 -->
<g id="node9" class="node">
<title>rval0</title>
<polygon fill="none" stroke="black" points="182.5,-0.5 182.5,-46.5 325.5,-46.5 325.5,-0.5 182.5,-0.5"/>
<text text-anchor="middle" x="254" y="-31.3" font-family="Times,serif" font-size="14.00">Command Substitution</text>
<polyline fill="none" stroke="black" points="182.5,-23.5 325.5,-23.5"/>
<text text-anchor="middle" x="254" y="-8.3" font-family="Times,serif" font-size="14.00">$ echo doge</text>
</g>
<!-- stmt0&#45;&gt;rval0 -->
<g id="edge9" class="edge">
<title>stmt0&#45;&gt;rval0</title>
<path fill="none" stroke="black" d="M259.12,-83.79C258.43,-75.71 257.62,-66.35 256.85,-57.48"/>
<polygon fill="black" stroke="black" points="260.36,-57.44 256.01,-47.77 253.39,-58.04 260.36,-57.44"/>
</g>
<!-- expr0 -->
<g id="node11" class="node">
<title>expr0</title>
<polygon fill="none" stroke="black" points="344,-0.5 344,-46.5 398,-46.5 398,-0.5 344,-0.5"/>
<text text-anchor="middle" x="371" y="-31.3" font-family="Times,serif" font-size="14.00">Var</text>
<polyline fill="none" stroke="black" points="344,-23.5 398,-23.5"/>
<text text-anchor="middle" x="371" y="-8.3" font-family="Times,serif" font-size="14.00">&quot;x&quot;</text>
</g>
<!-- stmt1&#45;&gt;expr0 -->
<g id="edge10" class="edge">
<title>stmt1&#45;&gt;expr0</title>
<path fill="none" stroke="black" d="M366.61,-83.79C367.21,-75.71 367.9,-66.35 368.56,-57.48"/>
<polygon fill="black" stroke="black" points="372.03,-58.01 369.28,-47.78 365.05,-57.49 372.03,-58.01"/>
</g>
</g>
</svg>
